<svg version="1.1" id="Layer_1" xmlns="http://www.w3.org/2000/svg" xmlns:xlink="http://www.w3.org/1999/xlink" x="0px" y="0px"
	 width="100%" viewBox="0 0 608 592" enable-background="new 0 0 608 592" xml:space="preserve">
<path fill="#000000" opacity="1.000000" stroke="none" 
	d="
M505.921875,266.006866 
	C506.190002,292.690857 495.310730,314.430084 478.870911,333.923401 
	C476.617859,336.594910 474.426544,339.405853 471.773102,341.636597 
	C462.457458,349.468384 459.338562,359.894012 459.103699,371.435150 
	C458.847870,384.007507 455.184235,395.678680 450.348663,407.064514 
	C448.714813,410.911530 448.796509,414.174438 450.980347,417.891724 
	C459.663239,432.671753 469.944458,446.458862 477.753845,461.790100 
	C484.971466,475.959656 491.457581,490.421173 493.551086,506.262207 
	C495.940674,524.343933 493.654694,541.625488 480.627869,555.771362 
	C474.149323,562.806458 465.913666,567.505493 456.586731,569.191284 
	C433.823090,573.305542 411.330994,571.473511 388.962067,565.528320 
	C361.140594,558.133911 335.635437,545.869568 311.638977,530.270935 
	C306.592438,526.990479 301.512939,525.829651 295.619141,526.344604 
	C278.476837,527.842102 261.343353,527.884094 244.428329,524.181580 
	C238.269318,522.833496 232.115829,521.217407 226.203613,519.056580 
	C220.866425,517.105896 215.737930,517.336182 210.572311,518.868042 
	C177.055466,528.807495 142.761246,531.154236 108.190460,528.053772 
	C90.480530,526.465515 73.375320,521.384277 59.964722,508.571808 
	C49.830914,498.889984 46.002228,486.671844 47.213100,472.749359 
	C49.224274,449.625122 62.001572,432.257629 77.250595,416.193573 
	C84.132118,408.944305 90.985641,401.664551 98.030083,394.575714 
	C100.757156,391.831421 101.052261,389.094879 100.039177,385.530487 
	C95.683441,370.205475 94.726814,354.613831 95.340530,338.669861 
	C96.040543,320.483795 100.304291,303.192078 105.210030,285.875916 
	C107.233574,278.733276 105.068390,271.814484 102.140419,265.097931 
	C94.944839,248.591766 92.130005,231.410660 94.663765,213.444778 
	C96.229828,202.340485 98.722755,191.510971 104.229057,181.652847 
	C115.657982,161.191238 136.596207,149.640900 163.446243,155.161850 
	C175.815659,157.705261 187.487686,162.077408 196.782166,170.991180 
	C202.227737,176.213669 207.838516,176.934845 214.492844,173.877991 
	C238.597763,162.804764 264.080933,161.110535 290.127991,162.541672 
	C327.746857,164.608597 360.631622,179.066635 391.059845,200.214264 
	C395.429504,203.251190 399.761719,206.384369 403.810089,209.827133 
	C406.774567,212.348175 409.301392,212.225540 412.838470,210.897644 
	C431.739502,203.801727 451.320801,201.721985 470.418457,208.657272 
	C488.550690,215.241974 497.490356,230.872696 503.350983,248.364258 
	C505.214020,253.924652 506.471191,259.594513 505.921875,266.006866 
M360.670227,489.124634 
	C363.535919,488.365387 365.397064,486.054626 367.694794,484.451691 
	C404.305176,458.911865 430.843567,426.108398 440.831116,381.675568 
	C442.313751,375.079590 445.077850,368.431152 443.192474,360.998535 
	C440.614502,362.160522 438.401611,363.245941 436.120361,364.160828 
	C433.947449,365.032227 431.593079,366.055542 429.796783,363.550934 
	C427.901978,360.908966 429.973236,359.267120 431.578613,357.581970 
	C432.267700,356.858643 433.014648,356.190796 433.721588,355.484039 
	C443.972168,345.236694 454.196075,334.962524 464.475739,324.744415 
	C475.687378,313.599976 483.968597,300.671356 487.733582,285.236328 
	C490.038330,275.787567 489.366852,266.066101 488.723938,256.449036 
	C487.518250,238.414413 473.024536,224.400635 457.187683,221.624603 
	C444.973907,219.483643 432.641693,220.616913 420.860901,225.463531 
	C411.321533,229.388031 401.616577,232.910919 391.974640,236.584534 
	C389.769379,237.424744 387.253754,238.437988 385.717194,235.822678 
	C384.198914,233.238480 386.139801,231.554031 388.058960,230.020447 
	C390.224121,228.290298 392.286041,226.431000 394.409332,224.613800 
	C343.412659,173.186951 248.981583,155.086899 175.465210,211.882904 
	C107.092827,264.704834 91.260002,360.061035 136.305832,433.065247 
	C182.865463,508.522827 283.775146,534.208496 360.670227,489.124634 
M416.746704,455.231354 
	C392.359894,486.133209 360.949341,506.423767 321.822968,516.853271 
	C326.260468,519.906555 329.519379,522.415344 333.023010,524.515930 
	C354.281738,537.261230 377.128510,546.083374 401.268127,551.524597 
	C417.924774,555.279114 434.728210,556.610901 451.548309,552.609619 
	C463.734863,549.710571 472.763580,542.745056 475.749695,530.198120 
	C479.754913,513.369202 476.329041,497.220001 469.305664,481.750793 
	C460.879608,463.192078 449.037537,446.628845 438.337891,429.401337 
	C437.911469,428.714722 437.408203,427.999573 435.845428,428.162201 
	C430.000641,436.959564 424.522552,446.488037 416.746704,455.231354 
M100.217552,415.713867 
	C96.712257,419.277100 92.998993,422.660797 89.740112,426.436676 
	C79.408936,438.406860 69.012772,450.246857 65.146843,466.366638 
	C60.833641,484.351349 67.192703,497.794769 83.846466,505.544922 
	C95.901604,511.155029 108.807037,512.535767 121.627838,513.468933 
	C142.618546,514.996765 163.498398,512.610901 184.081924,508.388397 
	C189.203384,507.337799 194.902115,507.684814 199.837662,504.117798 
	C156.712708,483.782593 129.783936,449.088684 110.958267,406.241150 
	C106.925911,409.784821 103.828148,412.507141 100.217552,415.713867 
M158.443802,212.912338 
	C168.812637,204.477417 179.063461,195.889038 190.833939,189.306534 
	C179.617630,174.179459 158.853699,166.461121 141.802765,170.656128 
	C135.917511,172.104065 130.440094,174.727966 126.183983,179.097931 
	C117.232864,188.288528 112.669426,199.957596 111.468071,212.247803 
	C110.051125,226.743652 109.866798,241.502609 114.908676,255.675262 
	C115.824211,258.248810 115.771332,261.222961 119.100159,263.845306 
	C128.535660,244.075851 142.134964,227.860901 158.443802,212.912338 
z"/>
<path fill="#000000" opacity="1.000000" stroke="none" 
	d="
M535.376343,127.384750 
	C531.614624,130.700745 528.388123,134.198563 524.527100,136.727661 
	C518.799377,140.479492 516.406860,145.541824 516.180725,152.141769 
	C515.975586,158.126450 515.352295,164.095612 515.038269,170.078171 
	C514.817749,174.279678 514.005310,178.327423 512.569580,182.271805 
	C509.570221,190.511719 506.985382,192.234650 498.281097,190.557098 
	C488.805542,188.730881 480.462128,183.995331 472.629303,178.666306 
	C466.509766,174.502914 460.637756,174.084122 453.807678,176.285110 
	C444.024323,179.437790 434.204254,182.800232 423.590454,181.521484 
	C417.892029,180.834946 414.087921,177.250671 414.207611,171.369537 
	C414.417114,161.076813 414.924927,150.770050 417.988037,140.814545 
	C419.562378,135.697678 418.761719,131.155563 415.751038,126.630615 
	C410.691956,119.026917 405.481781,111.479996 402.151733,102.858650 
	C397.980835,92.060387 400.541199,86.942978 411.813995,83.548225 
	C420.944916,80.798485 430.388641,79.921951 439.786255,78.871819 
	C442.629913,78.554054 444.783081,77.719681 446.797546,75.723518 
	C451.805878,70.760635 455.398224,64.710480 459.801880,59.292854 
	C464.111115,53.991386 468.464539,48.599533 475.913330,47.600452 
	C482.771423,46.680599 488.551331,50.306561 492.576691,57.824490 
	C496.049255,64.310005 498.814941,71.098991 501.029938,78.086143 
	C502.548401,82.876114 505.257538,86.074646 510.160095,87.589851 
	C519.081848,90.347229 527.379761,94.620537 535.722168,98.724937 
	C547.695862,104.615959 549.119507,113.310143 539.863281,122.886810 
	C538.473999,124.324165 537.040710,125.718842 535.376343,127.384750 
M486.010376,73.514931 
	C484.491211,70.742775 483.079437,67.904831 481.429871,65.212593 
	C478.319763,60.136742 476.361542,60.041039 472.430237,64.706711 
	C466.100769,72.218491 459.805023,79.758850 453.525177,87.312195 
	C451.226471,90.077049 448.359131,91.376884 444.756561,91.166107 
	C437.521729,90.742821 430.607819,93.113289 423.488007,93.822495 
	C420.291534,94.140900 416.634216,94.807335 413.377502,97.124161 
	C417.589874,106.317986 421.527313,115.408951 428.441254,122.896172 
	C432.497742,127.289001 434.101196,132.209213 432.071899,138.477722 
	C429.423920,146.657364 427.068207,155.017242 427.024811,163.776733 
	C426.995911,169.604813 427.969238,170.421326 433.812378,169.361664 
	C440.586853,168.133118 446.847382,165.362961 453.054047,162.590668 
	C460.938293,159.069061 468.015930,159.681702 475.089661,164.787491 
	C481.551025,169.451309 488.190796,173.948853 495.670898,176.952896 
	C499.924683,178.661240 501.532654,177.911179 501.918396,173.274002 
	C502.731506,163.498611 503.215912,153.696030 503.852386,143.905731 
	C504.090454,140.243896 504.199097,136.644943 507.898041,134.280823 
	C514.536194,130.038193 520.112244,124.509468 525.542480,118.858421 
	C527.800659,116.508461 530.345398,114.312210 531.425171,111.297531 
	C530.195190,109.229736 528.505066,108.440598 526.839111,107.728668 
	C519.186584,104.458488 511.610260,100.965614 503.796814,98.130852 
	C497.700500,95.919090 493.573212,92.124161 491.195251,86.221970 
	C489.579315,82.211143 487.952179,78.204819 486.010376,73.514931 
z"/>
<path fill="#000000" opacity="1.000000" stroke="none" 
	d="
M307.340546,54.186424 
	C310.542511,53.118393 313.424988,52.301678 316.205139,51.221695 
	C319.749908,49.844700 322.288757,47.469219 323.851562,43.818665 
	C326.137177,38.479755 328.525879,33.138378 331.425903,28.118835 
	C337.380341,17.812582 347.444611,17.145967 355.007965,26.379326 
	C357.110413,28.945982 359.475586,31.547476 360.684601,34.550011 
	C364.641357,44.376503 372.790710,46.274593 381.974396,46.895737 
	C388.341919,47.326405 394.358368,49.194931 399.834656,52.562042 
	C403.816315,55.010143 404.940979,58.456806 403.315308,62.855537 
	C400.642151,70.088623 397.506592,77.166855 391.947571,82.596611 
	C388.039642,86.413620 387.537018,90.534554 388.693604,95.320412 
	C390.625214,103.313271 391.233002,111.416138 390.883636,119.609474 
	C390.634644,125.447975 389.196716,126.845497 383.389465,127.281334 
	C374.180878,127.972435 365.430267,125.930222 357.203461,122.157845 
	C353.119110,120.284973 350.008240,120.776093 346.561371,123.029922 
	C339.852905,127.416435 332.810364,131.095810 324.976135,133.145004 
	C318.475952,134.845230 315.748657,133.645569 313.258362,127.454117 
	C310.474121,120.531975 309.269409,113.179939 310.433472,105.948166 
	C311.620117,98.576057 309.157654,93.476418 303.812317,88.924973 
	C299.761536,85.475792 295.906158,81.767670 292.213074,77.934616 
	C286.497742,72.002663 286.924103,66.557709 293.306610,61.450150 
	C297.385712,58.185875 302.110779,56.106438 307.340546,54.186424 
M385.487091,70.975777 
	C387.877991,68.246399 390.111359,65.419640 391.661346,61.294777 
	C384.913452,59.031586 378.253174,57.764217 371.564270,57.544609 
	C366.183838,57.367958 361.856812,56.252056 358.642578,51.650005 
	C356.943695,49.217560 355.012817,46.978104 353.379395,44.447529 
	C350.815186,40.475002 347.990875,36.545094 344.121552,33.311840 
	C339.713867,36.502228 338.089294,41.140110 336.067871,45.411465 
	C332.051147,53.898731 327.412445,61.591553 317.175262,63.555752 
	C316.039215,63.773727 314.853241,64.026199 313.843384,64.554893 
	C309.995209,66.569550 305.305725,67.209526 302.099670,71.408066 
	C307.356201,76.422577 312.436188,81.163406 317.392242,86.030495 
	C321.221863,89.791405 323.359619,94.268616 323.149628,99.840942 
	C322.936646,105.493332 323.058411,111.160225 323.119720,116.819839 
	C323.136810,118.399406 322.621033,120.224083 324.750763,121.544075 
	C330.339020,119.052826 335.563690,115.527946 340.845306,112.155716 
	C346.807281,108.349091 352.617340,106.642929 359.586548,109.999626 
	C364.609009,112.418655 369.834259,114.702545 375.474060,115.622238 
	C378.869568,116.175957 380.209930,114.998138 379.405273,111.541222 
	C378.653564,108.311836 378.315094,104.954842 377.265533,101.831841 
	C373.286041,89.990387 375.810486,79.922478 385.487091,70.975777 
z"/>
<path fill="#000000" opacity="1.000000" stroke="none" 
	d="
M277.911469,491.044800 
	C254.551346,500.358215 233.349350,496.114532 214.030838,481.722504 
	C189.782211,463.657623 180.007187,437.942963 176.884415,408.905334 
	C174.867096,390.147003 176.241638,371.719849 181.702942,353.661591 
	C187.071701,335.909393 196.130737,320.664307 212.909164,311.453552 
	C229.136322,302.545441 245.569839,303.611755 261.359741,312.600677 
	C275.546997,320.677307 284.396301,334.003265 293.250702,347.142242 
	C304.861115,364.370850 313.010193,383.198944 315.297882,403.846252 
	C318.249420,430.484680 315.361969,456.148743 296.707031,477.514679 
	C291.622009,483.338684 285.379852,487.768799 277.911469,491.044800 
M200.177414,417.616974 
	C199.307343,421.167297 198.015289,424.675171 197.653030,428.276581 
	C196.841202,436.347534 195.447037,444.637238 198.725479,452.410156 
	C203.559189,463.870514 212.426743,471.999664 222.764282,478.340637 
	C238.897415,488.236542 256.482544,490.195496 273.947632,483.395935 
	C293.718994,475.698486 302.716125,458.907745 305.583801,438.891724 
	C307.781769,423.550354 307.254639,408.157104 303.972717,392.795197 
	C301.127045,379.475128 296.678802,366.916870 289.730499,355.295654 
	C287.770905,352.018158 285.381622,348.619659 280.720032,348.149750 
	C267.675079,346.834595 255.478989,349.702972 244.301178,356.162018 
	C220.706543,369.796082 208.050446,391.558929 200.177414,417.616974 
z"/>
<path fill="#000000" opacity="1.000000" stroke="none" 
	d="
M268.867340,309.011597 
	C263.454712,301.962463 265.065460,294.149353 265.220245,286.571777 
	C265.516998,272.045563 270.271729,258.592316 275.261688,245.202637 
	C275.778809,243.815033 276.637451,242.568085 275.741821,240.970703 
	C273.295898,236.608200 275.620361,233.953964 279.319183,232.222809 
	C288.537750,227.908279 298.477844,225.729462 308.149475,222.749619 
	C315.947296,220.347092 323.733582,218.075790 332.033966,218.699936 
	C334.011353,218.848633 336.370911,218.533539 336.876617,221.128555 
	C337.359894,223.608246 335.737152,225.295502 333.622711,226.153107 
	C331.171417,227.147293 328.580597,228.340790 326.021301,228.412689 
	C320.616211,228.564529 319.256775,231.444855 318.586273,236.246765 
	C315.432220,258.835632 308.153870,280.200928 298.235138,300.655609 
	C294.482208,308.394958 289.412689,314.741821 279.370544,314.504944 
	C274.863892,314.398651 271.902008,312.249268 268.867340,309.011597 
M298.906006,255.469391 
	C303.963196,249.025711 307.239899,241.865662 308.394043,232.782898 
	C303.829254,234.213928 300.030792,235.230377 296.359222,236.589569 
	C286.752625,240.145920 286.731964,240.206879 287.039856,250.590561 
	C287.124756,253.453888 286.223999,256.895081 289.864990,258.390869 
	C293.211060,259.765503 295.999664,258.387115 298.906006,255.469391 
M275.440033,285.988342 
	C275.336487,290.135803 275.204773,294.282806 275.139343,298.430878 
	C275.095886,301.183624 276.313049,303.363129 278.841187,304.389771 
	C281.414917,305.434875 283.918060,304.607849 285.587219,302.515503 
	C289.543701,297.556000 290.993805,291.528137 292.655487,285.157532 
	C286.251770,288.709808 281.151001,285.813965 275.810120,282.366913 
	C275.674835,283.716064 275.595764,284.504669 275.440033,285.988342 
z"/>
<path fill="#000000" opacity="1.000000" stroke="none" 
	d="
M220.985474,194.657394 
	C230.734665,202.989151 237.333176,213.522858 245.194931,222.983414 
	C245.938522,223.878189 246.557953,224.875946 247.299286,225.772766 
	C252.112457,231.595337 251.964554,232.481155 245.103363,236.030411 
	C243.201935,237.014023 242.698471,238.743958 242.240799,240.468582 
	C238.007385,256.421295 232.043533,271.764679 225.686935,286.949249 
	C223.767410,291.534546 221.027786,295.790863 216.440140,298.428772 
	C210.233627,301.997528 204.941406,301.123779 200.714752,295.342041 
	C197.850769,291.424286 196.006058,287.059906 195.637054,282.030609 
	C193.993530,259.630432 201.876160,239.925903 212.591354,220.989136 
	C213.328201,219.686935 214.259354,218.495316 215.008347,217.199219 
	C217.940735,212.124802 222.581467,207.688400 216.428299,201.167175 
	C213.368362,197.924194 216.151657,194.235443 220.985474,194.657394 
M220.129074,226.863968 
	C218.504501,230.682495 218.945755,234.686401 219.275879,238.620361 
	C219.560944,242.017349 221.383865,242.965591 224.802078,241.863037 
	C230.751419,239.944046 233.086456,235.005814 235.229355,229.987900 
	C237.327591,225.074554 232.935745,222.475555 230.632065,219.294556 
	C227.101608,214.419617 225.870987,214.573349 223.261673,219.781372 
	C222.227158,221.846252 221.369827,223.999893 220.129074,226.863968 
M208.128952,269.095520 
	C206.942474,268.831207 206.137695,269.341187 205.916367,270.469299 
	C204.918457,275.556000 204.837311,280.727844 206.324722,285.651520 
	C207.488205,289.502869 212.004929,290.030975 214.624222,286.641479 
	C217.950058,282.337677 220.092407,277.386230 221.240616,271.215088 
	C216.463654,272.190582 212.586761,270.936157 208.128952,269.095520 
z"/>
</svg>